<svg width="80" height="49" viewBox="0 0 80 49" fill="none" xmlns="http://www.w3.org/2000/svg">
<path d="M31.853 6.37152C31.853 6.37152 32.9554 2.45135 38.585 3.67633C38.585 3.67633 38.585 2.23376 40.7296 2.89614C42.8742 3.55852 47.4063 6.62277 51.6943 5.14654C51.6943 5.14654 50.5788 7.16734 46.0214 6.37152C46.0214 6.37152 47.7129 8.02567 47.9581 9.49709C47.9581 9.49709 46.9158 8.33342 45.8135 7.96676C45.8135 7.96676 48.8765 10.5393 48.6313 14.0977C48.237 13.0025 47.5602 12.03 46.6706 11.2799C46.6706 11.2799 48.8765 16.3036 47.0385 21.694C47.0385 21.694 46.9182 7.72754 37.8505 7.35968C37.8505 7.35968 41.2802 10.0549 40.5457 17.2833C39.8112 24.5118 36.7481 35.6761 39.8713 41.2384C39.8713 41.2384 34.184 38.4206 36.0124 26.8392C37.8565 15.1916 38.591 5.88105 31.853 6.37152Z" fill="white"/>
<path d="M41.7766 33.9088C41.7766 33.9088 42.1998 27.2886 49.1277 24.258C60.8882 19.1116 68.7226 6.61658 67.5036 0C67.5036 0 74.9773 11.1486 66.7691 23.277C66.7691 23.277 75.5892 15.8045 76.2023 11.026C76.2023 11.026 80.2451 25.6056 65.9108 34.5483C65.9108 34.5483 76.9368 31.8531 79.9998 26.7079C79.9998 26.7079 79.6392 35.6507 68.6072 41.8994C68.6072 41.8994 75.4678 41.6589 78.0404 38.5911C78.0404 38.5911 76.0797 45.5743 67.5036 48.6374L69.8321 45.3291C69.8321 45.3291 64.1965 45.0886 59.7859 43.4922C59.7859 43.4922 71.1797 40.1839 74.2416 34.4257C74.2416 34.4257 69.2191 38.5911 56.4776 35.8959C56.4776 35.8959 72.894 32.7114 73.6297 20.5818C73.6297 20.5818 69.3417 28.3008 54.6359 30.6281C54.6359 30.6281 68.8464 24.9925 66.7643 9.43439C66.7643 9.43439 65.8314 17.0379 56.4728 23.277C51.7003 26.4675 46.6765 27.511 41.7766 33.9088Z" fill="white"/>
<path d="M38.2244 33.9088C38.2244 33.9088 37.8001 27.2886 30.8734 24.258C19.1116 19.1116 11.2713 6.61658 12.4962 0C12.4962 0 5.02374 11.1486 13.232 23.277C13.232 23.277 4.41065 15.8045 3.79876 11.026C3.79876 11.026 -0.244035 25.6056 14.0891 34.5483C14.0891 34.5483 3.06305 31.8531 0 26.7079C0 26.7079 0.367854 35.6507 11.3939 41.8994C11.3939 41.8994 4.53327 41.6589 1.96069 38.5911C1.96069 38.5911 3.92138 45.5743 12.4962 48.6374L10.1689 45.3291C10.1689 45.3291 15.8045 45.0886 20.2152 43.4922C20.2152 43.4922 8.8213 40.1839 5.75825 34.4257C5.75825 34.4257 10.782 38.5911 23.5223 35.8959C23.5223 35.8959 7.10585 32.7114 6.37134 20.5818C6.37134 20.5818 10.6594 28.3008 25.3651 30.6281C25.3651 30.6281 11.1535 24.9925 13.2368 9.43439C13.2368 9.43439 14.1684 17.0379 23.5271 23.277C28.3008 26.4675 33.3209 27.511 38.2244 33.9088Z" fill="white"/>
</svg>
